#!OML:ASF E:\Style4\Style4.ASF
:FULLY-SPECIFIED
:DEGREES
4012
root 0.386057 17.5707 -1.4616 4.479 -5.77267 0.66054
lowerback 14.1192 0.233828 -2.06878
upperback 7.13635 0.0354783 0.0646102
thorax -0.399248 -0.0434037 1.22835
lowerneck -2.5523 3.22734 -2.69445
upperneck 8.10344 4.3901 0.819891
head 2.94725 2.11927 0.87164
rclavicle 7.70291e-016 1.07095e-014
rhumerus 47.2509 -13.7928 -35.3092
rradius 49.3173
rwrist -9.31308
rhand 30.1257 1.93358
rfingers 7.12502
rthumb 53.8199 -17.0255
lclavicle 7.70291e-016 1.07095e-014
lhumerus 70.7457 -11.0107 26.5416
lradius 69.8003
lwrist 12.9243
lhand 22.7247 25.9062
lfingers 7.12502
lthumb 47.0644 48.544
rfemur -25.3959 -2.64073 17.5072
rtibia 38.8557
rfoot -16.1736 -13.6988
rtoes -15.1318
lfemur -24.1234 3.08156 -19.9892
ltibia 39.7885
lfoot -20.5766 9.84064
ltoes -12.744
4013
root 0.369682 17.5893 -1.44967 4.58516 -5.38836 0.601391
lowerback 14.0228 0.394817 -1.96828
upperback 6.94701 0.259689 -0.0262824
thorax -0.555226 0.0762944 1.04529
lowerneck -2.5673 3.04543 -2.62189
upperneck 8.331 4.11498 1.20141
head 3.02668 1.99644 0.978516
rclavicle 9.41742e-015 1.37658e-014
rhumerus 47.3311 -14.8564 -35.181
rradius 49.2895
rwrist -9.22731
rhand 29.8057 2.09207
rfingers 7.12502
rthumb 53.5322 -17.0574
lclavicle 9.41742e-015 1.37658e-014
lhumerus 71.2511 -10.6056 27.51
lradius 69.7705
lwrist 12.9482
lhand 22.3199 25.831
lfingers 7.12502
lthumb 46.6897 48.6327
rfemur -25.1341 -2.72004 17.629
rtibia 38.3915
rfoot -16.0442 -13.9763
rtoes -15.0896
lfemur -23.9905 2.94733 -19.8657
ltibia 39.311
lfoot -20.3218 9.76847
ltoes -13.3774
4014
root 0.352867 17.609 -1.43568 4.69407 -5.0262 0.599513
lowerback 13.8702 0.447961 -2.07712
upperback 6.80491 0.319485 -0.0637705
thorax -0.625339 0.10678 1.05933
lowerneck -2.74529 2.98664 -2.61981
upperneck 8.63578 4.02299 1.43592
head 3.16216 1.95696 1.06134
rclavicle -9.31803e-015 1.05853e-014
rhumerus 47.8299 -15.6604 -35.0281
rradius 49.2816
rwrist -9.38546
rhand 29.3693 2.132
rfingers 7.12502
rthumb 53.139 -17.2719
lclavicle -9.31803e-015 1.05853e-014
lhumerus 71.3524 -9.92426 28.4866
lradius 69.5866
lwrist 12.9214
lhand 21.8018 25.2767
lfingers 7.12502
lthumb 46.2098 48.2833
rfemur -24.8926 -2.78215 17.6827
rtibia 37.9417
rfoot -15.9494 -14.2467
rtoes -15.1598
lfemur -23.8443 2.81055 -19.806
ltibia 38.8246
lfoot -20.096 9.68541
ltoes -13.5556
4015
root 0.338245 17.6295 -1.41939 4.75746 -4.62166 0.489399
lowerback 13.6883 0.375798 -2.13544
upperback 6.71361 0.224299 0.00644188
thorax -0.621328 0.0583052 1.17898
lowerneck -2.92891 3.04052 -2.9554
upperneck 8.92155 4.09506 1.73967
head 3.28185 1.99081 1.23119
rclavicle 1.2424e-015 8.59744e-015
rhumerus 48.7523 -16.2359 -35.0554
rradius 49.2451
rwrist -9.4411
rhand 28.8654 2.1689
rfingers 7.12502
rthumb 52.684 -17.5215
lclavicle 1.2424e-015 8.59744e-015
lhumerus 71.1622 -8.71573 29.271
lradius 69.4141
lwrist 13.2743
lhand 21.229 25.37
lfingers 7.12502
lthumb 45.6782 48.5973
rfemur -24.5583 -2.88751 17.8519
rtibia 37.4907
rfoot -15.8132 -14.5634
rtoes -15.6354
lfemur -23.6261 2.66748 -19.6266
ltibia 38.3389
lfoot -19.8727 9.47887
ltoes -13.2282
4016
root 0.324883 17.6476 -1.40609 4.79078 -4.19339 0.45674
lowerback 13.5752 0.367398 -2.15177
upperback 6.60105 0.214356 -0.00706891
thorax -0.678797 0.0554653 1.17558
lowerneck -2.97998 3.02845 -3.15024
upperneck 9.14459 4.06101 2.10334
head 3.35948 1.97962 1.38936
rclavicle 7.90169e-015 -1.39149e-015
rhumerus 49.4771 -16.8991 -35.3107
rradius 49.2728
rwrist -9.23918
rhand 28.4788 2.2472
rfingers 7.12502
rthumb 52.3342 -17.6578
lclavicle 7.90169e-015 -1.39149e-015
lhumerus 71.292 -7.66584 30.0184
lradius 69.2079
lwrist 13.4428
lhand 20.2576 25.9721
lfingers 7.12502
lthumb 44.775 49.5598
rfemur -24.1994 -3.01245 17.9253
rtibia 37.0517
rfoot -15.7641 -14.7696
rtoes -15.3745
lfemur -23.379 2.46856 -19.5277
ltibia 37.8401
lfoot -19.6472 9.24134
ltoes -12.9654
4017
root 0.309322 17.6669 -1.39338 4.83619 -3.81318 0.487062
lowerback 13.4786 0.461761 -2.18654
upperback 6.52186 0.335747 -0.0830972
thorax -0.714384 0.118058 1.09938
lowerneck -3.19016 2.91622 -3.16687
upperneck 9.37298 3.89018 2.42002
head 3.47868 1.9061 1.50149
rclavicle -3.8763e-015 -6.06293e-015
rhumerus 49.9197 -17.7179 -35.3753
rradius 49.4082
rwrist -9.20554
rhand 28.1906 2.20492
rfingers 7.12502
rthumb 52.0731 -17.8572
lclavicle -3.8763e-015 -6.06293e-015
lhumerus 71.6195 -6.75944 30.6827
lradius 69.0495
lwrist 13.4007
lhand 19.4527 25.3846
lfingers 7.12502
lthumb 44.0249 49.2582
rfemur -23.8881 -3.11566 17.9373
rtibia 36.6197
rfoot -15.6788 -14.9734
rtoes -15.0501
lfemur -23.1526 2.27687 -19.4937
ltibia 37.3422
lfoot -19.3714 9.0039
ltoes -12.5079
4018
root 0.293522 17.6864 -1.38196 4.8926 -3.40981 0.447665
lowerback 13.3745 0.545589 -2.0857
upperback 6.4974 0.45956 -0.182372
thorax -0.687677 0.1839 0.922661
lowerneck -3.68758 2.77687 -3.28289
upperneck 9.74539 3.68491 2.85864
head 3.70368 1.81815 1.68208
rclavicle -2.88238e-015 4.37326e-015
rhumerus 50.4284 -18.6079 -35.4247
rradius 49.5004
rwrist -9.17646
rhand 27.8578 2.25662
rfingers 7.12502
rthumb 51.7711 -17.984
lclavicle -2.88238e-015 4.37326e-015
lhumerus 71.8583 -5.78851 31.2392
lradius 69.1155
lwrist 13.62
lhand 19.4844 24.5898
lfingers 7.12502
lthumb 44.0545 48.4523
rfemur -23.5965 -3.22972 18.0318
rtibia 36.2142
rfoot -15.5581 -15.1971
rtoes -15.118
lfemur -22.9553 2.09328 -19.3889
ltibia 36.8473
lfoot -19.0532 8.84457
ltoes -12.5919
4019
root 0.278106 17.7051 -1.37108 4.95793 -3.02616 0.440497
lowerback 13.269 0.606804 -2.05592
upperback 6.4524 0.545047 -0.280935
thorax -0.680072 0.229451 0.792224
lowerneck -4.01415 2.69183 -3.16429
upperneck 10.04 3.54474 3.11428
head 3.87476 1.7643 1.75689
rclavicle -2.88238e-015 3.67752e-015
rhumerus 51.1247 -19.3739 -35.7271
rradius 49.5861
rwrist -9.01362
rhand 27.6242 2.29745
rfingers 7.12502
rthumb 51.5588 -18.0666
lclavicle -2.88238e-015 3.67752e-015
lhumerus 72.0448 -4.75228 31.9137
lradius 69.2522
lwrist 14.1093
lhand 19.832 25.0098
lfingers 7.12502
lthumb 44.3786 48.75
rfemur -23.3265 -3.36201 18.0911
rtibia 35.8235
rfoot -15.4946 -15.3572
rtoes -14.8817
lfemur -22.7593 1.95718 -19.3237
ltibia 36.358
lfoot -18.8002 8.71311
ltoes -12.7607
